<svg xmlns="http://www.w3.org/2000/svg" width="90.475" height="38.809" viewBox="0 0 90.475 38.809">
  <g id="Grupo_1950" data-name="Grupo 1950" transform="translate(-434.131 -277.147)">
    <path id="Trazado_8" data-name="Trazado 8" d="M548.652,372.43l-.011,0-.057,0Z" transform="translate(-93.759 -78.055)" fill="#fff"/>
    <path id="Trazado_9" data-name="Trazado 9" d="M656.519,388.256a2.5,2.5,0,0,1-1.616,2.509,18.911,18.911,0,0,1-5.183,1.089c-5.241.366-8.1-2.145-8.1-7.1a11.491,11.491,0,0,1,10.59-11.619c3.722-.26,6.614,1.562,6.614,5.176,0,4.445-4.048,6.572-11.348,6.865a2.083,2.083,0,0,0,.614,1.113,4.469,4.469,0,0,0,3.18.718,12.335,12.335,0,0,0,4.4-1.118.465.465,0,0,1,.683.369Zm-2.713-9.68c0-.745-.7-1.354-1.929-1.268a4.538,4.538,0,0,0-4.208,3.713c4.559-.275,6.137-1.042,6.137-2.4Z" transform="translate(-169.977 -78.616)" fill="#fff"/>
    <path id="Trazado_10" data-name="Trazado 10" d="M753.7,372.671c.1,1.918.431,7.925.566,10.118a.156.156,0,0,0,.3.032l4.18-9.776a2.428,2.428,0,0,1,2.034-1.469l3.84-.268a.747.747,0,0,1,.694,1.132l-8.188,15.276a2.6,2.6,0,0,1-2.081,1.368l-4.246.3a.437.437,0,0,1-.47-.365l-2.477-14.686a1.72,1.72,0,0,1,1.566-1.959l3.643-.255A.583.583,0,0,1,753.7,372.671Z" transform="translate(-256.987 -77.134)" fill="#fff"/>
    <path id="Trazado_11" data-name="Trazado 11" d="M847.829,385.757c-4.116.288-7.056-1.989-7.056-6.17a10.554,10.554,0,0,1,9.9-10.818c4.312-.3,7.055,2.316,7.055,6.1,0,6.239-4.247,10.488-9.865,10.881Zm.416-4.343c2.286-.16,3.522-4.031,3.642-6.426.07-1.4-.427-2.527-1.864-2.427-2.417.169-3.6,4.275-3.7,6.328-.082,1.643.585,2.619,1.892,2.527Z" transform="translate(-333.12 -75.037)" fill="#fff"/>
    <path id="Trazado_12" data-name="Trazado 12" d="M533.785,345.854l-3.858,20.413a.465.465,0,0,0,.493.562l3.549-.248a2.745,2.745,0,0,0,2.467-2.212l4.482-23.711a.468.468,0,0,0-.614-.539l-1.979.629A6.725,6.725,0,0,0,533.785,345.854Z" transform="translate(-78.468 -51.565)" fill="#fff"/>
    <path id="Trazado_13" data-name="Trazado 13" d="M588.631,341.53l-3.857,20.409a.465.465,0,0,0,.493.563l3.549-.248a2.745,2.745,0,0,0,2.467-2.212l4.481-23.711a.468.468,0,0,0-.614-.539l-1.976.627A6.731,6.731,0,0,0,588.631,341.53Z" transform="translate(-123.398 -48.021)" fill="#fff"/>
    <path id="Trazado_14" data-name="Trazado 14" d="M466.086,277.672a.657.657,0,0,0-1.005-.432,91.379,91.379,0,0,1-12.25,4.744L438,286.7c-2.25.652-3.655,2.04-3.855,5.4a8.829,8.829,0,0,0,.06,1.567.633.633,0,0,0,.9.478,87.023,87.023,0,0,1,10.717-4.25c.261-.081.5.121.316,1l-4.666,23.18a1.551,1.551,0,0,0,1.645,1.875l3.633-.254a.732.732,0,0,0,.658-.59l5.3-26.485c.151-.795.307-1.034.668-1.148l8.918-2.832a4.613,4.613,0,0,0,3.445-3.068A8.2,8.2,0,0,0,466.086,277.672Z" transform="translate(0)" fill="#fff"/>
  </g>
</svg>
