<svg xmlns="http://www.w3.org/2000/svg" width="30" height="30" viewBox="0 0 30 30">
  <g id="Grupo_956" data-name="Grupo 956" transform="translate(909 -222)">
    <rect id="Rectángulo_2522" data-name="Rectángulo 2522" width="30" height="30" transform="translate(-909 222)" fill="none"/>
    <path id="Icon_awesome-list" data-name="Icon awesome-list" d="M3.281,16.5H.656A.656.656,0,0,0,0,17.156v2.625a.656.656,0,0,0,.656.656H3.281a.656.656,0,0,0,.656-.656V17.156A.656.656,0,0,0,3.281,16.5Zm0-13.125H.656A.656.656,0,0,0,0,4.031V6.656a.656.656,0,0,0,.656.656H3.281a.656.656,0,0,0,.656-.656V4.031A.656.656,0,0,0,3.281,3.375Zm0,6.562H.656A.656.656,0,0,0,0,10.594v2.625a.656.656,0,0,0,.656.656H3.281a.656.656,0,0,0,.656-.656V10.594A.656.656,0,0,0,3.281,9.937Zm17.062,7.219H7.219a.656.656,0,0,0-.656.656v1.313a.656.656,0,0,0,.656.656H20.344A.656.656,0,0,0,21,19.125V17.813A.656.656,0,0,0,20.344,17.156Zm0-13.125H7.219a.656.656,0,0,0-.656.656V6a.656.656,0,0,0,.656.656H20.344A.656.656,0,0,0,21,6V4.688A.656.656,0,0,0,20.344,4.031Zm0,6.563H7.219a.656.656,0,0,0-.656.656v1.312a.656.656,0,0,0,.656.656H20.344A.656.656,0,0,0,21,12.562V11.25A.656.656,0,0,0,20.344,10.594Z" transform="translate(-904.5 225.094)" fill="none" stroke="#000" stroke-width="1.5"/>
  </g>
</svg>
