<svg xmlns="http://www.w3.org/2000/svg" width="30" height="30" viewBox="0 0 30 30">
  <g id="Grupo_1006" data-name="Grupo 1006" transform="translate(909 -222)">
    <rect id="Rectángulo_2522" data-name="Rectángulo 2522" width="30" height="30" transform="translate(-909 222)" fill="none"/>
    <path id="Icon_awesome-percentage" data-name="Icon awesome-percentage" d="M7.791,12.291a3.392,3.392,0,1,0-4.8,0A3.393,3.393,0,0,0,7.791,12.291Zm10.57,4.772a3.392,3.392,0,1,0,0,4.8A3.393,3.393,0,0,0,18.361,17.063Zm.9-10.267-1.2-1.2a1.7,1.7,0,0,0-2.4,0L1.1,20.16a1.7,1.7,0,0,0,0,2.4l1.2,1.2a1.7,1.7,0,0,0,2.4,0L19.258,9.194A1.7,1.7,0,0,0,19.258,6.8Z" transform="translate(-904.177 222.323)" stroke="#fff" stroke-width="3"/>
  </g>
</svg>
