<svg xmlns="http://www.w3.org/2000/svg" width="30" height="30" viewBox="0 0 30 30">
  <g id="Grupo_957" data-name="Grupo 957" transform="translate(909 -222)">
    <rect id="Rectángulo_2522" data-name="Rectángulo 2522" width="30" height="30" transform="translate(-909 222)" fill="none"/>
    <path id="Icon_material-help-outline" data-name="Icon material-help-outline" d="M12.9,20.6h2.2V18.4H12.9ZM14,3A11,11,0,1,0,25,14,11,11,0,0,0,14,3Zm0,19.8A8.8,8.8,0,1,1,22.8,14,8.812,8.812,0,0,1,14,22.8ZM14,7.4a4.4,4.4,0,0,0-4.4,4.4h2.2a2.2,2.2,0,1,1,4.4,0c0,2.2-3.3,1.925-3.3,5.5h2.2c0-2.475,3.3-2.75,3.3-5.5A4.4,4.4,0,0,0,14,7.4Z" transform="translate(-908 223)"/>
  </g>
</svg>
