<svg xmlns="http://www.w3.org/2000/svg" width="30" height="30" viewBox="0 0 30 30">
  <g id="Grupo_927" data-name="Grupo 927" transform="translate(909 -222)">
    <rect id="Rectángulo_2522" data-name="Rectángulo 2522" width="30" height="30" transform="translate(-909 222)" fill="none"/>
    <path id="Icon_metro-shop" data-name="Icon metro-shop" d="M10.517,11.19l.989-6.563H6.363L4.214,10.252a1.972,1.972,0,0,0-.1.625c0,1.38,1.438,2.5,3.214,2.5a3.049,3.049,0,0,0,3.19-2.187Zm4.846,2.187c1.775,0,3.214-1.12,3.214-2.5,0-.051,0-.1-.006-.151l-.636-6.1H12.792l-.637,6.094c0,.051-.005.1-.005.156,0,1.38,1.439,2.5,3.214,2.5Zm6.25,1.307v4.943H9.113V14.692A5.26,5.26,0,0,1,7.327,15a5.154,5.154,0,0,1-.714-.061v7.936a1.754,1.754,0,0,0,1.748,1.75h14a1.756,1.756,0,0,0,1.75-1.75V14.942A5.371,5.371,0,0,1,23.4,15,5.2,5.2,0,0,1,21.613,14.685Zm4.9-4.432L24.362,4.627H19.221l.987,6.552a3.042,3.042,0,0,0,3.191,2.2c1.775,0,3.214-1.12,3.214-2.5A2.007,2.007,0,0,0,26.513,10.252Z" transform="translate(-909.363 222.373)" fill="none" stroke="#000" stroke-width="1.5"/>
  </g>
</svg>
