<svg xmlns="http://www.w3.org/2000/svg" width="30" height="30" viewBox="0 0 30 30">
  <g id="Grupo_926" data-name="Grupo 926" transform="translate(909 -222)">
    <rect id="Rectángulo_2522" data-name="Rectángulo 2522" width="30" height="30" transform="translate(-909 222)" fill="none"/>
    <path id="Icon_awesome-tag" data-name="Icon awesome-tag" d="M0,9.848V1.875A1.875,1.875,0,0,1,1.875,0H9.848a1.875,1.875,0,0,1,1.326.549l8.277,8.277a1.875,1.875,0,0,1,0,2.652l-7.973,7.973a1.875,1.875,0,0,1-2.652,0L.549,11.174A1.875,1.875,0,0,1,0,9.848ZM4.375,2.5A1.875,1.875,0,1,0,6.25,4.375,1.875,1.875,0,0,0,4.375,2.5Z" transform="translate(-904 227)" fill="none" stroke="#000" stroke-width="1.5"/>
  </g>
</svg>
