<svg xmlns="http://www.w3.org/2000/svg" width="30" height="30" viewBox="0 0 30 30">
  <g id="Grupo_957" data-name="Grupo 957" transform="translate(909 -222)">
    <rect id="Rectángulo_2522" data-name="Rectángulo 2522" width="30" height="30" transform="translate(-909 222)" fill="none"/>
    <path id="Trazado_578" data-name="Trazado 578" d="M451.416,277.431a.355.355,0,0,0-.544-.233,49.439,49.439,0,0,1-6.626,2.566l-8.023,2.548c-1.217.353-1.977,1.1-2.085,2.923a4.773,4.773,0,0,0,.033.847.342.342,0,0,0,.486.259,47.079,47.079,0,0,1,5.8-2.3c.141-.044.268.065.171.542L438.1,297.123a.839.839,0,0,0,.89,1.014l1.965-.137a.4.4,0,0,0,.356-.319l2.868-14.326c.081-.43.166-.559.361-.621l4.824-1.532a2.5,2.5,0,0,0,1.863-1.66A4.438,4.438,0,0,0,451.416,277.431Z" transform="translate(-1336.801 -50.643)"/>
  </g>
</svg>
